<mxfile host="app.diagrams.net" modified="2022-02-11T02:28:55.985Z" agent="5.0 (Windows NT 10.0; WOW64) AppleWebKit/537.36 (KHTML, like Gecko) Chrome/98.0.4758.82 Safari/537.36" etag="gQkLqkRVd_TBXEaAj8_G" version="16.5.3" type="github">
  <diagram id="sEHjHb_dUamN474nyE9b" name="Page-1">
    <mxGraphModel dx="1038" dy="547" grid="1" gridSize="10" guides="1" tooltips="1" connect="1" arrows="1" fold="1" page="1" pageScale="1" pageWidth="827" pageHeight="1169" math="0" shadow="0">
      <root>
        <mxCell id="0" />
        <mxCell id="1" parent="0" />
        <mxCell id="J2E7nHSQHoN5_urqjspC-1" value="&lt;font style=&quot;vertical-align: inherit&quot;&gt;&lt;font style=&quot;vertical-align: inherit ; font-size: 23px&quot;&gt;Requirements&lt;/font&gt;&lt;/font&gt;" style="rounded=1;whiteSpace=wrap;html=1;labelBackgroundColor=none;fillColor=#e51400;fontColor=#ffffff;strokeColor=#B20000;" vertex="1" parent="1">
          <mxGeometry x="110" y="90" width="160" height="40" as="geometry" />
        </mxCell>
        <mxCell id="J2E7nHSQHoN5_urqjspC-2" value="Design" style="rounded=1;whiteSpace=wrap;html=1;labelBackgroundColor=none;fontSize=23;fillColor=#60a917;strokeColor=#2D7600;fontColor=#ffffff;" vertex="1" parent="1">
          <mxGeometry x="210" y="150" width="120" height="40" as="geometry" />
        </mxCell>
        <mxCell id="J2E7nHSQHoN5_urqjspC-3" value="Implementation" style="rounded=1;whiteSpace=wrap;html=1;labelBackgroundColor=none;fontSize=23;fillColor=#d80073;fontColor=#ffffff;strokeColor=#A50040;" vertex="1" parent="1">
          <mxGeometry x="300" y="220" width="170" height="50" as="geometry" />
        </mxCell>
        <mxCell id="J2E7nHSQHoN5_urqjspC-4" value="Maintenance" style="rounded=1;whiteSpace=wrap;html=1;labelBackgroundColor=none;fontSize=23;fillColor=#ffcd28;strokeColor=#d79b00;gradientColor=#ffa500;" vertex="1" parent="1">
          <mxGeometry x="414" y="290" width="150" height="40" as="geometry" />
        </mxCell>
        <mxCell id="J2E7nHSQHoN5_urqjspC-5" value="Verification" style="rounded=1;whiteSpace=wrap;html=1;labelBackgroundColor=none;fontSize=23;fillColor=#0050ef;strokeColor=#001DBC;fontColor=#ffffff;" vertex="1" parent="1">
          <mxGeometry x="510" y="360" width="160" height="40" as="geometry" />
        </mxCell>
        <mxCell id="J2E7nHSQHoN5_urqjspC-8" value="" style="html=1;shadow=0;dashed=0;align=center;verticalAlign=middle;shape=mxgraph.arrows2.bendArrow;dy=15;dx=38;notch=0;arrowHead=74;rounded=1;labelBackgroundColor=none;fontSize=23;rotation=90;perimeterSpacing=0;strokeWidth=1;" vertex="1" parent="1">
          <mxGeometry x="446.25" y="33.75" width="100" height="112.5" as="geometry" />
        </mxCell>
      </root>
    </mxGraphModel>
  </diagram>
</mxfile>
